<svg xmlns="http://www.w3.org/2000/svg" xmlns:xlink="http://www.w3.org/1999/xlink" width="161" zoomAndPan="magnify" viewBox="0 0 120.75 32.999998" height="44" preserveAspectRatio="xMidYMid meet" version="1.0"><defs><g/><clipPath id="6e217c18e3"><path d="M 0 0.0351562 L 120.5 0.0351562 L 120.5 32.964844 L 0 32.964844 Z M 0 0.0351562 " clip-rule="nonzero"/></clipPath><clipPath id="7ae11eb776"><path d="M 0 0.0351562 L 23.25 0.0351562 L 23.25 32.964844 L 0 32.964844 Z M 0 0.0351562 " clip-rule="nonzero"/></clipPath><clipPath id="eac7205ad9"><path d="M 7 21 L 17 21 L 17 32.964844 L 7 32.964844 Z M 7 21 " clip-rule="nonzero"/></clipPath><clipPath id="ee96a387fc"><path d="M 1 0.0351562 L 7 0.0351562 L 7 4 L 1 4 Z M 1 0.0351562 " clip-rule="nonzero"/></clipPath></defs><g clip-path="url(#6e217c18e3)"><path fill="#ffffff" d="M 0 0.0351562 L 120.75 0.0351562 L 120.75 40.535156 L 0 40.535156 Z M 0 0.0351562 " fill-opacity="1" fill-rule="nonzero"/><path fill="#ffffff" d="M 0 0.0351562 L 120.75 0.0351562 L 120.75 33.035156 L 0 33.035156 Z M 0 0.0351562 " fill-opacity="1" fill-rule="nonzero"/><path fill="#000000" d="M 0 0.0351562 L 120.75 0.0351562 L 120.75 33.035156 L 0 33.035156 Z M 0 0.0351562 " fill-opacity="1" fill-rule="nonzero"/></g><g clip-path="url(#7ae11eb776)"><path fill="#000000" d="M 8.398438 18.925781 C 10.0625 18.484375 11.671875 18.640625 13.28125 18.714844 C 13.78125 18.738281 14.277344 18.75 14.773438 18.792969 C 15.082031 18.820312 15.230469 18.71875 15.304688 18.410156 C 15.632812 17.046875 16.335938 15.878906 17.261719 14.847656 C 18.5625 13.394531 20.175781 12.433594 22.03125 11.878906 C 22.269531 11.804688 23 12.136719 23.117188 12.367188 C 23.25 12.636719 23.070312 12.769531 22.867188 12.886719 C 22.199219 13.285156 21.519531 13.664062 20.863281 14.082031 C 19.671875 14.839844 18.511719 15.652344 17.800781 16.910156 C 17.339844 17.730469 17.035156 18.644531 16.664062 19.511719 C 17.117188 19.832031 17.597656 20.082031 17.597656 20.640625 C 17.597656 20.996094 17.515625 21.429688 17.304688 21.6875 C 17.035156 22.015625 16.980469 22.351562 16.914062 22.722656 C 16.746094 23.667969 16.863281 24.601562 17.070312 25.527344 C 17.296875 26.558594 17.167969 27.574219 16.867188 28.570312 C 16.738281 28.984375 16.519531 29.375 16.402344 29.796875 C 16.285156 30.214844 16.210938 30.640625 16.179688 31.074219 C 16.15625 31.417969 16.035156 31.589844 15.675781 31.585938 C 14.9375 31.570312 14.195312 31.5625 13.371094 31.550781 C 13.363281 31.710938 13.351562 31.972656 13.335938 32.230469 C 13.300781 32.757812 13.035156 33.023438 12.570312 32.910156 C 12.382812 32.867188 12.1875 32.667969 12.09375 32.488281 C 11.96875 32.246094 11.941406 31.953125 11.855469 31.625 C 11.640625 31.683594 11.441406 31.777344 11.238281 31.789062 C 10.292969 31.835938 9.347656 31.902344 8.40625 31.875 C 7.714844 31.859375 7.484375 31.472656 7.621094 30.777344 C 7.792969 29.886719 7.789062 29.792969 7.550781 29.359375 C 6.707031 29.578125 5.890625 29.863281 5.046875 30 C 3.472656 30.25 1.925781 30.019531 0.441406 29.445312 C 0.328125 29.402344 0.234375 29.179688 0.222656 29.035156 C 0.179688 28.414062 0.15625 27.785156 0.152344 27.160156 C 0.128906 25.015625 0.117188 22.867188 0.0976562 20.722656 C 0.0898438 19.921875 0.0664062 19.125 0.0664062 18.328125 C 0.0664062 15.800781 0.0703125 13.273438 0.078125 10.746094 C 0.078125 10.105469 0.132812 9.46875 0.125 8.832031 C 0.121094 8.457031 0.0117188 8.082031 0.00390625 7.707031 C 0 7.230469 0.0585938 6.757812 0.0859375 6.28125 C 0.0976562 6.074219 0.0976562 5.867188 0.105469 5.660156 C 0.105469 5.550781 0.078125 5.429688 0.117188 5.335938 C 0.371094 4.726562 0.644531 4.128906 0.90625 3.523438 C 0.945312 3.425781 0.972656 3.320312 0.984375 3.214844 C 1.023438 2.9375 1.03125 2.652344 1.082031 2.378906 C 1.175781 1.859375 1.386719 1.65625 1.894531 1.578125 C 2.300781 1.515625 2.710938 1.484375 3.171875 1.433594 C 3.085938 1.21875 2.996094 1 2.917969 0.78125 C 2.761719 0.335938 2.933594 0.0859375 3.390625 0.0742188 C 3.511719 0.0703125 3.636719 0.0742188 3.757812 0.0664062 C 4.355469 0.0429688 4.34375 0.0507812 4.605469 0.585938 C 4.753906 0.867188 4.925781 1.132812 5.121094 1.386719 C 5.164062 1.445312 5.285156 1.464844 5.375 1.472656 C 5.734375 1.507812 6.097656 1.519531 6.460938 1.554688 C 6.78125 1.582031 7.023438 1.734375 7.0625 2.085938 C 7.113281 2.53125 7.144531 2.980469 7.183594 3.445312 C 7.230469 3.460938 7.285156 3.484375 7.34375 3.503906 C 7.984375 3.710938 8.140625 3.902344 8.058594 4.574219 C 8.019531 4.933594 8.050781 5.125 8.449219 5.222656 C 8.652344 5.273438 8.859375 5.503906 8.964844 5.707031 C 9.308594 6.359375 9.535156 7.050781 9.535156 7.808594 C 9.53125 8.886719 9.527344 9.96875 9.550781 11.046875 C 9.578125 12.027344 9.652344 13.003906 9.683594 13.984375 C 9.6875 14.242188 9.65625 14.496094 9.589844 14.746094 C 9.441406 15.351562 9.097656 15.515625 8.398438 15.34375 Z M 7.003906 27.371094 C 6.972656 26.714844 6.902344 26.101562 6.933594 25.492188 C 6.964844 24.882812 7.089844 24.257812 7.195312 23.644531 C 7.347656 22.773438 7.304688 21.945312 6.863281 21.148438 C 6.75 20.921875 6.730469 20.6875 6.804688 20.441406 C 6.972656 19.972656 7.214844 19.527344 7.683594 19.269531 C 7.769531 19.222656 7.824219 19.152344 7.84375 19.058594 C 7.855469 18.300781 7.863281 17.542969 7.851562 16.785156 C 7.84375 16.132812 7.796875 15.484375 7.792969 14.835938 C 7.792969 14.3125 7.863281 13.785156 7.855469 13.261719 C 7.847656 12.835938 7.738281 12.414062 7.722656 11.988281 C 7.679688 10.910156 7.667969 9.832031 7.632812 8.75 C 7.621094 8.300781 7.601562 7.847656 7.554688 7.402344 C 7.542969 7.3125 7.378906 7.242188 7.285156 7.164062 C 7.042969 7.558594 6.625 7.484375 6.269531 7.539062 C 5.050781 7.738281 3.828125 7.746094 2.605469 7.570312 C 1.953125 7.476562 1.3125 7.289062 0.722656 7.15625 L 0.722656 28.964844 C 2.890625 29.683594 5.410156 29.601562 7.34375 28.652344 L 7.160156 27.949219 C 6.242188 28.453125 5.257812 28.46875 4.304688 28.621094 C 3.8125 28.695312 3.316406 28.722656 2.816406 28.699219 C 2.691406 28.695312 2.496094 28.480469 2.46875 28.335938 C 2.425781 28.109375 2.632812 28.0625 2.839844 28.054688 C 3.179688 28.042969 3.519531 28.023438 3.855469 27.980469 C 4.925781 27.859375 6.007812 27.789062 7.003906 27.371094 Z M 16.367188 22.453125 C 15.980469 22.570312 15.675781 22.6875 15.355469 22.75 C 13.972656 23.011719 12.578125 23.015625 11.183594 22.886719 C 10.710938 22.84375 10.238281 22.800781 9.773438 22.71875 C 9.042969 22.585938 8.34375 22.347656 7.699219 21.839844 C 7.855469 22.59375 7.835938 23.34375 7.636719 24.089844 C 7.210938 25.820312 7.460938 27.503906 8.054688 29.144531 C 8.257812 29.710938 8.34375 30.246094 8.207031 30.824219 C 8.183594 30.910156 8.171875 30.992188 8.15625 31.078125 C 8.125 31.257812 8.195312 31.355469 8.382812 31.371094 C 9.542969 31.457031 10.675781 31.292969 11.839844 30.988281 C 11.808594 30.742188 11.855469 30.445312 11.730469 30.28125 C 11.496094 29.972656 11.210938 29.679688 10.773438 29.601562 C 10.476562 29.542969 10.191406 29.445312 9.917969 29.308594 C 9.007812 28.863281 8.269531 28.230469 7.863281 27.269531 C 7.78125 27.074219 7.726562 26.832031 7.980469 26.730469 C 8.234375 26.628906 8.292969 26.871094 8.390625 27.039062 C 8.820312 27.832031 9.449219 28.398438 10.277344 28.738281 C 10.832031 28.972656 11.40625 29.117188 11.945312 29.433594 C 12.328125 29.660156 12.363281 29.878906 12.390625 30.214844 C 12.449219 30.863281 12.519531 31.503906 12.582031 32.148438 L 12.699219 32.144531 C 12.714844 32.015625 12.726562 31.886719 12.746094 31.757812 C 13.003906 30.265625 13.371094 28.859375 15.097656 28.40625 C 15.554688 28.289062 15.9375 28.023438 16.113281 27.535156 C 16.140625 27.453125 16.25 27.40625 16.3125 27.335938 C 16.371094 27.265625 16.492188 27.171875 16.5 27.082031 C 16.523438 26.703125 16.582031 26.3125 16.511719 25.949219 C 16.285156 24.804688 16.03125 23.675781 16.367188 22.453125 Z M 0.765625 6.558594 C 1.070312 6.617188 1.425781 6.664062 1.773438 6.757812 C 3.269531 7.160156 4.773438 7.15625 6.285156 6.902344 C 6.523438 6.863281 6.839844 6.914062 6.941406 6.558594 C 6.957031 6.515625 7.0625 6.476562 7.128906 6.46875 C 7.648438 6.375 8.046875 6.609375 8.15625 7.148438 C 8.230469 7.582031 8.265625 8.015625 8.265625 8.457031 C 8.300781 10.070312 8.265625 11.691406 8.519531 13.296875 C 8.601562 13.789062 8.539062 14.320312 8.898438 14.773438 C 8.992188 14.300781 9.039062 13.820312 9.039062 13.339844 C 9.007812 11.589844 8.929688 9.839844 8.910156 8.085938 C 8.902344 7.441406 8.867188 6.828125 8.578125 6.234375 C 8.425781 5.917969 8.261719 5.699219 7.898438 5.667969 C 7.710938 5.660156 7.539062 5.617188 7.375 5.53125 C 7.277344 5.476562 7.199219 5.195312 7.210938 5.1875 C 7.496094 5.023438 7.429688 4.746094 7.433594 4.5 C 7.433594 4.363281 7.402344 4.167969 7.3125 4.101562 C 7.152344 3.984375 6.953125 3.925781 6.761719 4.136719 C 6.636719 4.257812 6.488281 4.328125 6.316406 4.351562 C 4.878906 4.558594 3.441406 4.617188 2.015625 4.257812 C 1.804688 4.203125 1.605469 4.101562 1.394531 4.058594 C 1.332031 4.046875 1.175781 4.164062 1.175781 4.21875 C 1.195312 4.542969 1.269531 4.839844 1.6875 4.847656 C 1.859375 4.847656 2.027344 4.867188 2.191406 4.910156 C 3.582031 5.308594 4.976562 5.1875 6.382812 5.058594 C 6.519531 5.046875 6.753906 5.167969 6.796875 5.28125 C 6.875 5.503906 6.695312 5.640625 6.476562 5.667969 C 6.007812 5.722656 5.539062 5.789062 5.066406 5.808594 C 3.585938 5.878906 2.148438 5.648438 0.761719 5.125 Z M 14.949219 19.441406 C 13.304688 19.390625 11.738281 19.347656 10.175781 19.300781 C 9.507812 19.28125 8.886719 19.457031 8.265625 19.691406 C 7.847656 19.851562 7.59375 20.140625 7.410156 20.535156 C 7.308594 20.757812 7.351562 20.914062 7.539062 21.039062 C 7.742188 21.171875 7.964844 21.277344 8.15625 21.429688 C 8.730469 21.886719 9.410156 22.070312 10.109375 22.167969 C 11.554688 22.359375 13.007812 22.433594 14.464844 22.25 C 15.292969 22.140625 16.097656 21.976562 16.730469 21.375 C 17.175781 20.953125 17.042969 20.421875 16.394531 20.207031 C 16.402344 20.382812 16.402344 20.558594 16.386719 20.734375 C 16.367188 20.875 16.339844 21.078125 16.242188 21.140625 C 15.9375 21.332031 15.613281 21.542969 15.269531 21.621094 C 13.949219 21.917969 12.609375 22.089844 11.265625 21.789062 C 10.640625 21.640625 10.027344 21.460938 9.421875 21.246094 C 9.28125 21.199219 9.078125 21.003906 9.097656 20.914062 C 9.144531 20.710938 9.25 20.546875 9.414062 20.421875 C 9.601562 20.300781 9.800781 20.226562 10.023438 20.203125 C 11.550781 19.980469 13.078125 19.828125 14.625 20.175781 C 14.722656 19.957031 14.8125 19.746094 14.949219 19.441406 Z M 3.527344 0.695312 C 3.578125 0.832031 3.632812 0.96875 3.683594 1.105469 C 3.890625 1.683594 3.628906 2.050781 3.007812 2.050781 C 2.828125 2.046875 2.644531 2.050781 2.464844 2.070312 C 1.570312 2.199219 1.484375 2.308594 1.488281 3.199219 C 1.488281 3.40625 1.539062 3.507812 1.761719 3.539062 C 2.441406 3.636719 3.113281 3.828125 3.796875 3.859375 C 4.566406 3.894531 5.34375 3.808594 6.117188 3.746094 C 6.402344 3.722656 6.5625 3.535156 6.539062 3.210938 C 6.511719 2.890625 6.5 2.558594 6.484375 2.238281 C 6.308594 2.203125 6.179688 2.164062 6.050781 2.152344 C 5.695312 2.113281 5.332031 2.023438 5.148438 2.5 C 5.097656 2.628906 4.894531 2.761719 4.746094 2.777344 C 4.300781 2.828125 3.855469 2.839844 3.410156 2.8125 C 3.296875 2.804688 3.199219 2.578125 3.089844 2.453125 C 3.21875 2.371094 3.339844 2.230469 3.476562 2.214844 C 3.796875 2.179688 4.128906 2.214844 4.453125 2.207031 C 4.699219 2.199219 4.789062 2.066406 4.65625 1.84375 C 4.472656 1.542969 4.242188 1.261719 4.105469 0.945312 C 3.980469 0.648438 3.8125 0.597656 3.527344 0.699219 Z M 14.9375 20.953125 L 15.007812 21.050781 C 15.179688 20.9375 15.449219 20.867188 15.511719 20.710938 C 15.84375 19.925781 16.109375 19.113281 16.429688 18.320312 C 16.679688 17.703125 16.917969 17.066406 17.257812 16.496094 C 17.898438 15.429688 18.835938 14.644531 19.863281 13.964844 C 20.605469 13.476562 21.375 13.019531 22.128906 12.550781 C 21.089844 12.804688 20.171875 13.304688 19.304688 13.917969 C 17.894531 14.914062 16.820312 16.1875 16.191406 17.804688 C 15.789062 18.863281 15.566406 19.988281 14.9375 20.957031 Z M 16.1875 28.554688 C 15.703125 28.761719 15.253906 28.972656 14.792969 29.152344 C 14.207031 29.378906 13.675781 30.109375 13.648438 30.84375 C 14.132812 30.871094 14.621094 30.910156 15.105469 30.921875 C 15.328125 30.929688 15.445312 30.820312 15.507812 30.566406 C 15.628906 30.074219 15.824219 29.601562 15.988281 29.121094 C 16.054688 28.929688 16.121094 28.738281 16.1875 28.554688 Z M 14.253906 20.707031 C 12.988281 20.484375 10.59375 20.640625 9.941406 20.894531 C 11.394531 21.308594 12.828125 21.46875 14.285156 21.136719 C 14.273438 20.96875 14.261719 20.835938 14.253906 20.707031 Z M 14.253906 20.707031 " fill-opacity="1" fill-rule="nonzero"/></g><path fill="#ffffff" d="M 7.003906 27.371094 C 6.007812 27.789062 4.925781 27.859375 3.855469 27.984375 C 3.519531 28.023438 3.179688 28.042969 2.839844 28.058594 C 2.636719 28.066406 2.429688 28.113281 2.472656 28.339844 C 2.496094 28.484375 2.695312 28.699219 2.820312 28.703125 C 3.320312 28.722656 3.816406 28.695312 4.308594 28.617188 C 5.261719 28.464844 6.246094 28.449219 7.164062 27.945312 L 7.347656 28.648438 C 5.414062 29.597656 2.894531 29.679688 0.726562 28.960938 L 0.726562 7.15625 C 1.316406 7.289062 1.957031 7.476562 2.609375 7.570312 C 3.832031 7.746094 5.054688 7.738281 6.273438 7.539062 C 6.628906 7.484375 7.046875 7.558594 7.289062 7.164062 C 7.382812 7.242188 7.546875 7.3125 7.554688 7.402344 C 7.605469 7.847656 7.625 8.300781 7.636719 8.75 C 7.667969 9.832031 7.683594 10.910156 7.726562 11.988281 C 7.742188 12.414062 7.851562 12.835938 7.859375 13.261719 C 7.867188 13.785156 7.796875 14.3125 7.796875 14.835938 C 7.796875 15.484375 7.847656 16.132812 7.855469 16.785156 C 7.867188 17.542969 7.859375 18.300781 7.847656 19.058594 C 7.828125 19.152344 7.773438 19.222656 7.6875 19.269531 C 7.214844 19.527344 6.972656 19.972656 6.808594 20.441406 C 6.734375 20.6875 6.753906 20.921875 6.867188 21.148438 C 7.304688 21.945312 7.351562 22.769531 7.199219 23.644531 C 7.09375 24.257812 6.96875 24.875 6.9375 25.492188 C 6.902344 26.113281 6.972656 26.714844 7.003906 27.371094 Z M 1.601562 28.839844 C 1.765625 28.613281 1.917969 28.492188 1.941406 28.347656 C 1.949219 28.296875 1.949219 28.25 1.933594 28.199219 C 1.917969 28.152344 1.890625 28.113281 1.855469 28.078125 C 1.820312 28.042969 1.777344 28.019531 1.726562 28.007812 C 1.679688 27.996094 1.628906 27.996094 1.582031 28.011719 C 1.449219 28.039062 1.269531 28.222656 1.257812 28.351562 C 1.246094 28.480469 1.429688 28.609375 1.601562 28.839844 Z M 1.601562 28.839844 " fill-opacity="1" fill-rule="nonzero"/><g clip-path="url(#eac7205ad9)"><path fill="#ffffff" d="M 16.367188 22.453125 C 16.03125 23.671875 16.285156 24.804688 16.511719 25.949219 C 16.585938 26.3125 16.523438 26.703125 16.5 27.082031 C 16.492188 27.167969 16.382812 27.253906 16.3125 27.332031 C 16.238281 27.414062 16.140625 27.453125 16.113281 27.53125 C 15.9375 28.023438 15.554688 28.285156 15.097656 28.40625 C 13.371094 28.859375 13.003906 30.265625 12.746094 31.757812 C 12.726562 31.886719 12.714844 32.015625 12.699219 32.144531 L 12.582031 32.148438 C 12.519531 31.503906 12.449219 30.859375 12.390625 30.214844 C 12.363281 29.878906 12.328125 29.660156 11.945312 29.433594 C 11.40625 29.117188 10.832031 28.96875 10.277344 28.738281 C 9.449219 28.398438 8.820312 27.832031 8.390625 27.039062 C 8.292969 26.871094 8.234375 26.625 7.980469 26.730469 C 7.726562 26.832031 7.78125 27.074219 7.863281 27.269531 C 8.269531 28.226562 9.007812 28.867188 9.917969 29.304688 C 10.191406 29.445312 10.476562 29.542969 10.773438 29.601562 C 11.214844 29.679688 11.496094 29.972656 11.730469 30.28125 C 11.855469 30.445312 11.804688 30.742188 11.839844 30.988281 C 10.675781 31.292969 9.542969 31.457031 8.382812 31.371094 C 8.195312 31.359375 8.125 31.261719 8.15625 31.078125 C 8.171875 30.992188 8.183594 30.90625 8.207031 30.824219 C 8.34375 30.246094 8.257812 29.710938 8.054688 29.144531 C 7.460938 27.503906 7.210938 25.816406 7.636719 24.089844 C 7.835938 23.34375 7.855469 22.59375 7.699219 21.835938 C 8.34375 22.347656 9.042969 22.585938 9.773438 22.71875 C 10.238281 22.800781 10.710938 22.839844 11.183594 22.886719 C 12.578125 23.011719 13.972656 23.011719 15.359375 22.746094 C 15.675781 22.6875 15.980469 22.566406 16.367188 22.453125 Z M 16.367188 22.453125 " fill-opacity="1" fill-rule="nonzero"/></g><path fill="#ffffff" d="M 0.765625 6.558594 L 0.765625 5.121094 C 2.152344 5.648438 3.585938 5.878906 5.066406 5.808594 C 5.539062 5.785156 6.007812 5.722656 6.480469 5.667969 C 6.699219 5.640625 6.878906 5.503906 6.796875 5.28125 C 6.757812 5.164062 6.519531 5.042969 6.386719 5.058594 C 4.980469 5.191406 3.582031 5.3125 2.195312 4.910156 C 2.03125 4.867188 1.863281 4.847656 1.691406 4.847656 C 1.269531 4.839844 1.195312 4.542969 1.179688 4.21875 C 1.179688 4.164062 1.335938 4.042969 1.398438 4.058594 C 1.609375 4.097656 1.808594 4.203125 2.019531 4.253906 C 3.445312 4.617188 4.882812 4.554688 6.316406 4.347656 C 6.492188 4.324219 6.640625 4.253906 6.765625 4.132812 C 6.957031 3.921875 7.15625 3.984375 7.3125 4.097656 C 7.40625 4.164062 7.4375 4.359375 7.4375 4.496094 C 7.4375 4.738281 7.5 5.019531 7.210938 5.183594 C 7.199219 5.191406 7.28125 5.472656 7.375 5.527344 C 7.539062 5.613281 7.714844 5.660156 7.898438 5.667969 C 8.265625 5.699219 8.425781 5.914062 8.582031 6.230469 C 8.867188 6.828125 8.90625 7.441406 8.914062 8.085938 C 8.933594 9.835938 9.007812 11.589844 9.042969 13.339844 C 9.042969 13.820312 8.996094 14.296875 8.898438 14.769531 C 8.542969 14.320312 8.601562 13.792969 8.523438 13.292969 C 8.269531 11.691406 8.304688 10.070312 8.265625 8.453125 C 8.269531 8.015625 8.230469 7.578125 8.15625 7.148438 C 8.046875 6.609375 7.648438 6.375 7.128906 6.464844 C 7.058594 6.476562 6.953125 6.511719 6.941406 6.558594 C 6.84375 6.914062 6.523438 6.859375 6.28125 6.898438 C 4.773438 7.15625 3.265625 7.15625 1.773438 6.757812 C 1.425781 6.664062 1.070312 6.617188 0.765625 6.558594 Z M 0.765625 6.558594 " fill-opacity="1" fill-rule="nonzero"/><path fill="#ffffff" d="M 14.949219 19.441406 C 14.8125 19.746094 14.722656 19.957031 14.625 20.171875 C 13.082031 19.824219 11.554688 19.976562 10.023438 20.195312 C 9.804688 20.222656 9.601562 20.296875 9.414062 20.417969 C 9.25 20.542969 9.144531 20.707031 9.097656 20.910156 C 9.082031 21 9.285156 21.195312 9.421875 21.242188 C 10.027344 21.453125 10.644531 21.636719 11.269531 21.785156 C 12.613281 22.085938 13.949219 21.914062 15.269531 21.617188 C 15.613281 21.542969 15.9375 21.328125 16.242188 21.132812 C 16.339844 21.074219 16.367188 20.871094 16.386719 20.730469 C 16.402344 20.554688 16.40625 20.378906 16.394531 20.203125 C 17.046875 20.417969 17.179688 20.949219 16.734375 21.371094 C 16.097656 21.972656 15.296875 22.136719 14.464844 22.242188 C 13.007812 22.429688 11.558594 22.355469 10.109375 22.164062 C 9.410156 22.070312 8.734375 21.882812 8.15625 21.425781 C 7.96875 21.277344 7.742188 21.167969 7.539062 21.035156 C 7.351562 20.910156 7.308594 20.753906 7.410156 20.53125 C 7.59375 20.136719 7.851562 19.847656 8.269531 19.6875 C 8.886719 19.449219 9.511719 19.277344 10.175781 19.296875 C 11.738281 19.347656 13.304688 19.394531 14.949219 19.441406 Z M 14.949219 19.441406 " fill-opacity="1" fill-rule="nonzero"/><g clip-path="url(#ee96a387fc)"><path fill="#ffffff" d="M 3.527344 0.699219 C 3.8125 0.597656 3.980469 0.644531 4.105469 0.941406 C 4.246094 1.261719 4.472656 1.542969 4.65625 1.847656 C 4.789062 2.070312 4.699219 2.203125 4.453125 2.210938 C 4.128906 2.21875 3.796875 2.183594 3.476562 2.21875 C 3.339844 2.230469 3.21875 2.371094 3.089844 2.457031 C 3.199219 2.582031 3.296875 2.808594 3.410156 2.816406 C 3.855469 2.84375 4.300781 2.832031 4.746094 2.78125 C 4.894531 2.765625 5.097656 2.632812 5.148438 2.503906 C 5.332031 2.027344 5.695312 2.117188 6.050781 2.15625 C 6.179688 2.167969 6.308594 2.207031 6.484375 2.242188 C 6.5 2.5625 6.511719 2.890625 6.539062 3.214844 C 6.566406 3.539062 6.402344 3.726562 6.117188 3.75 C 5.34375 3.808594 4.566406 3.894531 3.796875 3.863281 C 3.113281 3.832031 2.441406 3.640625 1.761719 3.542969 C 1.542969 3.507812 1.492188 3.410156 1.488281 3.203125 C 1.484375 2.3125 1.570312 2.203125 2.464844 2.074219 C 2.644531 2.054688 2.828125 2.046875 3.007812 2.054688 C 3.628906 2.054688 3.890625 1.6875 3.683594 1.105469 C 3.632812 0.96875 3.582031 0.835938 3.527344 0.699219 Z M 3.527344 0.699219 " fill-opacity="1" fill-rule="nonzero"/></g><path fill="#ffffff" d="M 14.9375 20.957031 C 15.566406 19.988281 15.789062 18.863281 16.195312 17.808594 C 16.820312 16.191406 17.902344 14.917969 19.308594 13.921875 C 20.175781 13.308594 21.09375 12.804688 22.132812 12.554688 C 21.378906 13.023438 20.609375 13.480469 19.867188 13.96875 C 18.84375 14.644531 17.902344 15.429688 17.261719 16.5 C 16.921875 17.070312 16.683594 17.707031 16.433594 18.324219 C 16.113281 19.117188 15.847656 19.929688 15.515625 20.714844 C 15.449219 20.871094 15.1875 20.941406 15.011719 21.054688 Z M 14.9375 20.957031 " fill-opacity="1" fill-rule="nonzero"/><path fill="#ffffff" d="M 16.1875 28.554688 C 16.121094 28.738281 16.054688 28.929688 15.988281 29.121094 C 15.824219 29.605469 15.628906 30.078125 15.507812 30.570312 C 15.445312 30.820312 15.324219 30.929688 15.109375 30.925781 C 14.621094 30.914062 14.136719 30.875 13.652344 30.84375 C 13.675781 30.113281 14.210938 29.378906 14.792969 29.152344 C 15.253906 28.972656 15.703125 28.765625 16.1875 28.554688 Z M 16.1875 28.554688 " fill-opacity="1" fill-rule="nonzero"/><path fill="#ffffff" d="M 14.253906 20.707031 C 14.261719 20.835938 14.273438 20.96875 14.285156 21.136719 C 12.828125 21.46875 11.394531 21.308594 9.941406 20.894531 C 10.59375 20.640625 12.988281 20.484375 14.253906 20.707031 Z M 14.253906 20.707031 " fill-opacity="1" fill-rule="nonzero"/><path fill="#000000" d="M 1.601562 28.839844 C 1.429688 28.613281 1.25 28.472656 1.257812 28.351562 C 1.269531 28.234375 1.449219 28.039062 1.582031 28.011719 C 1.628906 27.996094 1.679688 27.996094 1.726562 28.007812 C 1.777344 28.019531 1.820312 28.042969 1.855469 28.078125 C 1.890625 28.113281 1.917969 28.152344 1.933594 28.199219 C 1.949219 28.25 1.949219 28.296875 1.941406 28.347656 C 1.917969 28.488281 1.765625 28.609375 1.601562 28.839844 Z M 1.601562 28.839844 " fill-opacity="1" fill-rule="nonzero"/><g fill="#ffffff" fill-opacity="1"><g transform="translate(24.561092, 20.659088)"><g><path d="M 7.359375 0 L 5.421875 -2.765625 C 5.179688 -2.742188 4.992188 -2.734375 4.859375 -2.734375 L 2.640625 -2.734375 L 2.640625 0 L 1.34375 0 L 1.34375 -8.984375 L 4.859375 -8.984375 C 6.023438 -8.984375 6.941406 -8.707031 7.609375 -8.15625 C 8.273438 -7.601562 8.609375 -6.835938 8.609375 -5.859375 C 8.609375 -5.160156 8.4375 -4.566406 8.09375 -4.078125 C 7.75 -3.597656 7.257812 -3.242188 6.625 -3.015625 L 8.765625 0 Z M 4.8125 -3.828125 C 5.625 -3.828125 6.242188 -4 6.671875 -4.34375 C 7.109375 -4.695312 7.328125 -5.203125 7.328125 -5.859375 C 7.328125 -6.503906 7.109375 -7 6.671875 -7.34375 C 6.242188 -7.695312 5.625 -7.875 4.8125 -7.875 L 2.640625 -7.875 L 2.640625 -3.828125 Z M 4.8125 -3.828125 "/></g></g></g><g fill="#ffffff" fill-opacity="1"><g transform="translate(33.889984, 20.659088)"><g><path d="M 7.515625 -6.8125 L 7.515625 0 L 6.34375 0 L 6.34375 -1.03125 C 6.09375 -0.675781 5.765625 -0.398438 5.359375 -0.203125 C 4.953125 -0.015625 4.507812 0.078125 4.03125 0.078125 C 3.125 0.078125 2.410156 -0.171875 1.890625 -0.671875 C 1.367188 -1.171875 1.109375 -1.910156 1.109375 -2.890625 L 1.109375 -6.8125 L 2.34375 -6.8125 L 2.34375 -3.03125 C 2.34375 -2.375 2.5 -1.875 2.8125 -1.53125 C 3.125 -1.195312 3.578125 -1.03125 4.171875 -1.03125 C 4.828125 -1.03125 5.34375 -1.222656 5.71875 -1.609375 C 6.09375 -2.003906 6.28125 -2.5625 6.28125 -3.28125 L 6.28125 -6.8125 Z M 7.515625 -6.8125 "/></g></g></g><g fill="#ffffff" fill-opacity="1"><g transform="translate(42.577274, 20.659088)"><g><path d="M 1.171875 -6.8125 L 2.40625 -6.8125 L 2.40625 0 L 1.171875 0 Z M 1.78125 -8.125 C 1.539062 -8.125 1.34375 -8.195312 1.1875 -8.34375 C 1.03125 -8.5 0.953125 -8.6875 0.953125 -8.90625 C 0.953125 -9.132812 1.03125 -9.328125 1.1875 -9.484375 C 1.34375 -9.640625 1.539062 -9.71875 1.78125 -9.71875 C 2.019531 -9.71875 2.21875 -9.640625 2.375 -9.484375 C 2.539062 -9.335938 2.625 -9.15625 2.625 -8.9375 C 2.625 -8.707031 2.539062 -8.515625 2.375 -8.359375 C 2.21875 -8.203125 2.019531 -8.125 1.78125 -8.125 Z M 1.78125 -8.125 "/></g></g></g><g fill="#ffffff" fill-opacity="1"><g transform="translate(46.157409, 20.659088)"><g><path d="M 7.59375 -9.53125 L 7.59375 0 L 6.40625 0 L 6.40625 -1.078125 C 6.132812 -0.703125 5.785156 -0.414062 5.359375 -0.21875 C 4.941406 -0.0195312 4.484375 0.078125 3.984375 0.078125 C 3.328125 0.078125 2.734375 -0.0664062 2.203125 -0.359375 C 1.679688 -0.648438 1.273438 -1.054688 0.984375 -1.578125 C 0.691406 -2.109375 0.546875 -2.71875 0.546875 -3.40625 C 0.546875 -4.09375 0.691406 -4.695312 0.984375 -5.21875 C 1.273438 -5.738281 1.679688 -6.144531 2.203125 -6.4375 C 2.734375 -6.726562 3.328125 -6.875 3.984375 -6.875 C 4.472656 -6.875 4.921875 -6.78125 5.328125 -6.59375 C 5.742188 -6.40625 6.085938 -6.132812 6.359375 -5.78125 L 6.359375 -9.53125 Z M 4.078125 -1 C 4.503906 -1 4.894531 -1.097656 5.25 -1.296875 C 5.601562 -1.503906 5.878906 -1.789062 6.078125 -2.15625 C 6.273438 -2.519531 6.375 -2.9375 6.375 -3.40625 C 6.375 -3.875 6.273438 -4.289062 6.078125 -4.65625 C 5.878906 -5.019531 5.601562 -5.300781 5.25 -5.5 C 4.894531 -5.695312 4.503906 -5.796875 4.078125 -5.796875 C 3.640625 -5.796875 3.25 -5.695312 2.90625 -5.5 C 2.5625 -5.300781 2.285156 -5.019531 2.078125 -4.65625 C 1.878906 -4.289062 1.78125 -3.875 1.78125 -3.40625 C 1.78125 -2.9375 1.878906 -2.519531 2.078125 -2.15625 C 2.285156 -1.789062 2.5625 -1.503906 2.90625 -1.296875 C 3.25 -1.097656 3.640625 -1 4.078125 -1 Z M 4.078125 -1 "/></g></g></g><g fill="#ffffff" fill-opacity="1"><g transform="translate(54.908866, 20.659088)"><g><path d="M 4.078125 0.078125 C 3.398438 0.078125 2.789062 -0.0703125 2.25 -0.375 C 1.71875 -0.675781 1.300781 -1.085938 1 -1.609375 C 0.695312 -2.140625 0.546875 -2.738281 0.546875 -3.40625 C 0.546875 -4.070312 0.695312 -4.664062 1 -5.1875 C 1.300781 -5.71875 1.71875 -6.128906 2.25 -6.421875 C 2.789062 -6.722656 3.398438 -6.875 4.078125 -6.875 C 4.753906 -6.875 5.359375 -6.722656 5.890625 -6.421875 C 6.429688 -6.128906 6.851562 -5.71875 7.15625 -5.1875 C 7.457031 -4.664062 7.609375 -4.070312 7.609375 -3.40625 C 7.609375 -2.738281 7.457031 -2.140625 7.15625 -1.609375 C 6.851562 -1.085938 6.429688 -0.675781 5.890625 -0.375 C 5.359375 -0.0703125 4.753906 0.078125 4.078125 0.078125 Z M 4.078125 -1 C 4.515625 -1 4.90625 -1.097656 5.25 -1.296875 C 5.601562 -1.503906 5.878906 -1.789062 6.078125 -2.15625 C 6.273438 -2.519531 6.375 -2.9375 6.375 -3.40625 C 6.375 -3.875 6.273438 -4.289062 6.078125 -4.65625 C 5.878906 -5.019531 5.601562 -5.300781 5.25 -5.5 C 4.90625 -5.695312 4.515625 -5.796875 4.078125 -5.796875 C 3.640625 -5.796875 3.25 -5.695312 2.90625 -5.5 C 2.5625 -5.300781 2.285156 -5.019531 2.078125 -4.65625 C 1.878906 -4.289062 1.78125 -3.875 1.78125 -3.40625 C 1.78125 -2.9375 1.878906 -2.519531 2.078125 -2.15625 C 2.285156 -1.789062 2.5625 -1.503906 2.90625 -1.296875 C 3.25 -1.097656 3.640625 -1 4.078125 -1 Z M 4.078125 -1 "/></g></g></g><g fill="#ffffff" fill-opacity="1"><g transform="translate(63.057219, 20.659088)"><g/></g></g><g fill="#ffffff" fill-opacity="1"><g transform="translate(66.509043, 20.659088)"><g><path d="M 7.59375 -9.53125 L 7.59375 0 L 6.40625 0 L 6.40625 -1.078125 C 6.132812 -0.703125 5.785156 -0.414062 5.359375 -0.21875 C 4.941406 -0.0195312 4.484375 0.078125 3.984375 0.078125 C 3.328125 0.078125 2.734375 -0.0664062 2.203125 -0.359375 C 1.679688 -0.648438 1.273438 -1.054688 0.984375 -1.578125 C 0.691406 -2.109375 0.546875 -2.71875 0.546875 -3.40625 C 0.546875 -4.09375 0.691406 -4.695312 0.984375 -5.21875 C 1.273438 -5.738281 1.679688 -6.144531 2.203125 -6.4375 C 2.734375 -6.726562 3.328125 -6.875 3.984375 -6.875 C 4.472656 -6.875 4.921875 -6.78125 5.328125 -6.59375 C 5.742188 -6.40625 6.085938 -6.132812 6.359375 -5.78125 L 6.359375 -9.53125 Z M 4.078125 -1 C 4.503906 -1 4.894531 -1.097656 5.25 -1.296875 C 5.601562 -1.503906 5.878906 -1.789062 6.078125 -2.15625 C 6.273438 -2.519531 6.375 -2.9375 6.375 -3.40625 C 6.375 -3.875 6.273438 -4.289062 6.078125 -4.65625 C 5.878906 -5.019531 5.601562 -5.300781 5.25 -5.5 C 4.894531 -5.695312 4.503906 -5.796875 4.078125 -5.796875 C 3.640625 -5.796875 3.25 -5.695312 2.90625 -5.5 C 2.5625 -5.300781 2.285156 -5.019531 2.078125 -4.65625 C 1.878906 -4.289062 1.78125 -3.875 1.78125 -3.40625 C 1.78125 -2.9375 1.878906 -2.519531 2.078125 -2.15625 C 2.285156 -1.789062 2.5625 -1.503906 2.90625 -1.296875 C 3.25 -1.097656 3.640625 -1 4.078125 -1 Z M 4.078125 -1 "/></g></g></g><g fill="#ffffff" fill-opacity="1"><g transform="translate(75.2605, 20.659088)"><g><path d="M 7.328125 -3.359375 C 7.328125 -3.265625 7.316406 -3.144531 7.296875 -3 L 1.765625 -3 C 1.847656 -2.394531 2.113281 -1.910156 2.5625 -1.546875 C 3.007812 -1.179688 3.566406 -1 4.234375 -1 C 5.046875 -1 5.703125 -1.273438 6.203125 -1.828125 L 6.890625 -1.03125 C 6.578125 -0.664062 6.191406 -0.390625 5.734375 -0.203125 C 5.273438 -0.015625 4.765625 0.078125 4.203125 0.078125 C 3.484375 0.078125 2.84375 -0.0664062 2.28125 -0.359375 C 1.726562 -0.660156 1.300781 -1.078125 1 -1.609375 C 0.695312 -2.140625 0.546875 -2.738281 0.546875 -3.40625 C 0.546875 -4.0625 0.691406 -4.65625 0.984375 -5.1875 C 1.273438 -5.71875 1.679688 -6.128906 2.203125 -6.421875 C 2.722656 -6.722656 3.304688 -6.875 3.953125 -6.875 C 4.609375 -6.875 5.1875 -6.722656 5.6875 -6.421875 C 6.195312 -6.128906 6.597656 -5.71875 6.890625 -5.1875 C 7.179688 -4.65625 7.328125 -4.046875 7.328125 -3.359375 Z M 3.953125 -5.828125 C 3.359375 -5.828125 2.863281 -5.644531 2.46875 -5.28125 C 2.070312 -4.925781 1.835938 -4.457031 1.765625 -3.875 L 6.140625 -3.875 C 6.066406 -4.445312 5.832031 -4.914062 5.4375 -5.28125 C 5.039062 -5.644531 4.546875 -5.828125 3.953125 -5.828125 Z M 3.953125 -5.828125 "/></g></g></g><g fill="#ffffff" fill-opacity="1"><g transform="translate(83.11371, 20.659088)"><g/></g></g><g fill="#ffffff" fill-opacity="1"><g transform="translate(86.565534, 20.659088)"><g><path d="M 9.6875 0 L 9.671875 -6.546875 L 6.421875 -1.09375 L 5.828125 -1.09375 L 2.578125 -6.515625 L 2.578125 0 L 1.34375 0 L 1.34375 -8.984375 L 2.40625 -8.984375 L 6.15625 -2.671875 L 9.84375 -8.984375 L 10.90625 -8.984375 L 10.921875 0 Z M 9.6875 0 "/></g></g></g><g fill="#ffffff" fill-opacity="1"><g transform="translate(98.820142, 20.659088)"><g><path d="M 3.640625 -6.875 C 4.585938 -6.875 5.3125 -6.640625 5.8125 -6.171875 C 6.3125 -5.710938 6.5625 -5.023438 6.5625 -4.109375 L 6.5625 0 L 5.390625 0 L 5.390625 -0.90625 C 5.191406 -0.582031 4.898438 -0.335938 4.515625 -0.171875 C 4.128906 -0.00390625 3.675781 0.078125 3.15625 0.078125 C 2.394531 0.078125 1.785156 -0.101562 1.328125 -0.46875 C 0.867188 -0.84375 0.640625 -1.328125 0.640625 -1.921875 C 0.640625 -2.523438 0.859375 -3.007812 1.296875 -3.375 C 1.734375 -3.738281 2.425781 -3.921875 3.375 -3.921875 L 5.328125 -3.921875 L 5.328125 -4.15625 C 5.328125 -4.6875 5.171875 -5.09375 4.859375 -5.375 C 4.554688 -5.664062 4.101562 -5.8125 3.5 -5.8125 C 3.101562 -5.8125 2.710938 -5.742188 2.328125 -5.609375 C 1.941406 -5.472656 1.613281 -5.296875 1.34375 -5.078125 L 0.828125 -6 C 1.179688 -6.28125 1.601562 -6.492188 2.09375 -6.640625 C 2.582031 -6.796875 3.097656 -6.875 3.640625 -6.875 Z M 3.359375 -0.875 C 3.835938 -0.875 4.242188 -0.976562 4.578125 -1.1875 C 4.921875 -1.394531 5.171875 -1.691406 5.328125 -2.078125 L 5.328125 -3.03125 L 3.421875 -3.03125 C 2.378906 -3.03125 1.859375 -2.679688 1.859375 -1.984375 C 1.859375 -1.640625 1.988281 -1.367188 2.25 -1.171875 C 2.519531 -0.972656 2.890625 -0.875 3.359375 -0.875 Z M 3.359375 -0.875 "/></g></g></g><g fill="#ffffff" fill-opacity="1"><g transform="translate(106.493703, 20.659088)"><g><path d="M 5 -0.390625 C 4.8125 -0.242188 4.585938 -0.128906 4.328125 -0.046875 C 4.066406 0.0351562 3.789062 0.078125 3.5 0.078125 C 2.820312 0.078125 2.289062 -0.101562 1.90625 -0.46875 C 1.53125 -0.84375 1.34375 -1.375 1.34375 -2.0625 L 1.34375 -5.796875 L 0.1875 -5.796875 L 0.1875 -6.8125 L 1.34375 -6.8125 L 1.34375 -8.296875 L 2.578125 -8.296875 L 2.578125 -6.8125 L 4.53125 -6.8125 L 4.53125 -5.796875 L 2.578125 -5.796875 L 2.578125 -2.109375 C 2.578125 -1.734375 2.671875 -1.445312 2.859375 -1.25 C 3.046875 -1.0625 3.304688 -0.96875 3.640625 -0.96875 C 4.023438 -0.96875 4.347656 -1.070312 4.609375 -1.28125 Z M 5 -0.390625 "/></g></g></g><g fill="#ffffff" fill-opacity="1"><g transform="translate(111.806165, 20.659088)"><g><path d="M 7.328125 -3.359375 C 7.328125 -3.265625 7.316406 -3.144531 7.296875 -3 L 1.765625 -3 C 1.847656 -2.394531 2.113281 -1.910156 2.5625 -1.546875 C 3.007812 -1.179688 3.566406 -1 4.234375 -1 C 5.046875 -1 5.703125 -1.273438 6.203125 -1.828125 L 6.890625 -1.03125 C 6.578125 -0.664062 6.191406 -0.390625 5.734375 -0.203125 C 5.273438 -0.015625 4.765625 0.078125 4.203125 0.078125 C 3.484375 0.078125 2.84375 -0.0664062 2.28125 -0.359375 C 1.726562 -0.660156 1.300781 -1.078125 1 -1.609375 C 0.695312 -2.140625 0.546875 -2.738281 0.546875 -3.40625 C 0.546875 -4.0625 0.691406 -4.65625 0.984375 -5.1875 C 1.273438 -5.71875 1.679688 -6.128906 2.203125 -6.421875 C 2.722656 -6.722656 3.304688 -6.875 3.953125 -6.875 C 4.609375 -6.875 5.1875 -6.722656 5.6875 -6.421875 C 6.195312 -6.128906 6.597656 -5.71875 6.890625 -5.1875 C 7.179688 -4.65625 7.328125 -4.046875 7.328125 -3.359375 Z M 3.953125 -5.828125 C 3.359375 -5.828125 2.863281 -5.644531 2.46875 -5.28125 C 2.070312 -4.925781 1.835938 -4.457031 1.765625 -3.875 L 6.140625 -3.875 C 6.066406 -4.445312 5.832031 -4.914062 5.4375 -5.28125 C 5.039062 -5.644531 4.546875 -5.828125 3.953125 -5.828125 Z M 3.953125 -5.828125 "/></g></g></g></svg>